<?xml version="1.0" encoding="UTF-8"?>
<svg version="1.1" xmlns="http://www.w3.org/2000/svg" width="686" height="186">
<path d="M0 0 C226.38 0 452.76 0 686 0 C686 61.38 686 122.76 686 186 C459.62 186 233.24 186 0 186 C0 124.62 0 63.24 0 0 Z " fill="#FDFDFD" transform="translate(0,0)"/>
<path d="M0 0 C0.8878418 0.00829834 1.77568359 0.01659668 2.69042969 0.02514648 C12.45793777 0.27732122 19.30409126 2.73204579 26.44140625 9.5390625 C36.26233571 20.21685157 37.82898688 33.75943891 37.5625 47.75 C37.56121094 49.05517578 37.55992187 50.36035156 37.55859375 51.70507812 C37.43268048 65.47859056 34.38755907 77.08696967 24.6640625 87.3203125 C16.05058084 94.6838883 7.78316977 97.40903461 -3.46875 96.79296875 C-11.43231275 95.94637505 -17.65324114 93.77893196 -23.8125 88.4375 C-25.0703125 86.2421875 -25.0703125 86.2421875 -25.8125 84.4375 C-26.4725 84.4375 -27.1325 84.4375 -27.8125 84.4375 C-27.8125 99.9475 -27.8125 115.4575 -27.8125 131.4375 C-35.7325 131.4375 -43.6525 131.4375 -51.8125 131.4375 C-51.8125 88.5375 -51.8125 45.6375 -51.8125 1.4375 C-43.8925 1.4375 -35.9725 1.4375 -27.8125 1.4375 C-27.8125 5.3975 -27.8125 9.3575 -27.8125 13.4375 C-27.1525 13.4375 -26.4925 13.4375 -25.8125 13.4375 C-25.54824219 12.84066406 -25.28398438 12.24382813 -25.01171875 11.62890625 C-23.76449342 9.34977463 -22.58613938 8.05789992 -20.625 6.375 C-20.07457031 5.88902344 -19.52414063 5.40304688 -18.95703125 4.90234375 C-12.72597909 0.64616058 -7.38769465 -0.08834625 0 0 Z " fill="#020202" transform="translate(106.8125,45.5625)"/>
<path d="M0 0 C1.01191406 -0.01998047 2.02382813 -0.03996094 3.06640625 -0.06054688 C13.32971758 -0.05397625 22.20843085 2.72667281 30.1171875 9.40234375 C40.38868892 19.81372943 40.29767917 32.44691946 40.31591797 46.20288086 C40.25763256 52.30486744 40.25763256 52.30486744 39.125 53.4375 C37.2531906 53.53136381 35.3778194 53.55493804 33.50366211 53.55102539 C32.30249252 53.55094986 31.10132294 53.55087433 29.86375427 53.55079651 C28.5564888 53.54563522 27.24922333 53.54047394 25.90234375 53.53515625 C24.55855868 53.53329198 23.21477293 53.53186812 21.87098694 53.53086853 C18.32817723 53.52704402 14.7854083 53.51721432 11.24261475 53.50616455 C7.62984773 53.49594899 4.01707416 53.4913706 0.40429688 53.48632812 C-6.6888188 53.47559198 -13.78190674 53.45851636 -20.875 53.4375 C-20.56127441 54.70891846 -20.24754883 55.98033691 -19.92431641 57.2902832 C-19.74784576 58.00545609 -19.57137512 58.72062897 -19.38955688 59.45747375 C-18.01235541 64.7569754 -15.93036624 69.07685894 -11.5 72.4375 C-4.88030068 76.12615046 3.97643564 75.36300124 11.1875 73.75 C16.11968429 71.54625809 19.06940047 67.77966775 22.125 63.4375 C25.98594532 64.86069517 29.37728499 66.64769801 32.875 68.8125 C33.83921875 69.39773437 34.8034375 69.98296875 35.796875 70.5859375 C38.125 72.4375 38.125 72.4375 39.109375 74.421875 C39.14153383 78.57036446 35.76216151 81.49408748 33.125 84.4375 C24.09688576 93.26806251 14.40982351 96.50487927 1.8125 96.875 C-10.71472648 96.60462821 -22.78470714 93.31284729 -32.3984375 84.984375 C-42.49611598 74.40585468 -45.2296255 62.18296917 -45.1875 48.0625 C-45.20361328 46.99 -45.21972656 45.9175 -45.23632812 44.8125 C-45.24181763 35.7877562 -43.83007599 27.84670481 -38.9375 20.125 C-38.45410156 19.34511719 -37.97070312 18.56523438 -37.47265625 17.76171875 C-34.31678489 13.17065895 -31.428305 9.80885294 -26.6875 6.8125 C-25.36685547 5.95785156 -25.36685547 5.95785156 -24.01953125 5.0859375 C-16.04387904 0.90491237 -8.95638216 -0.06227573 0 0 Z " fill="#020202" transform="translate(578.875,45.5625)"/>
<path d="M0 0 C1.08539063 -0.01611328 2.17078125 -0.03222656 3.2890625 -0.04882812 C12.82535444 -0.05458676 21.51672789 1.52330245 28.625 8.3125 C35.85850774 16.73560317 35.90962641 27.81105009 36.00390625 38.4140625 C36.02090073 39.41714447 36.0378952 40.42022644 36.05540466 41.45370483 C36.10796855 44.61490826 36.14862836 47.77610099 36.1875 50.9375 C36.23144317 54.13454563 36.27801004 57.33149166 36.33030701 60.52841187 C36.36226517 62.50817261 36.38915494 64.48802282 36.41053772 66.46792603 C36.42402756 67.35330048 36.4375174 68.23867493 36.45141602 69.15087891 C36.46092789 69.9326651 36.47043976 70.71445129 36.48023987 71.51992798 C36.43202813 73.33549307 36.43202813 73.33549307 37.625 74.3125 C38.97247084 74.54325082 40.32877565 74.72403063 41.6875 74.875 C42.986875 75.019375 44.28625 75.16375 45.625 75.3125 C47.92112756 86.83414009 47.92112756 86.83414009 47.625 92.3125 C43.64198005 94.99647571 39.43462765 94.67999045 34.8125 94.6875 C34.03068359 94.71199219 33.24886719 94.73648438 32.44335938 94.76171875 C26.68056731 94.79060493 23.32477611 93.68822751 18.625 90.3125 C16.79904199 88.06094275 15.89587867 85.95592763 14.625 83.3125 C13.965 83.3125 13.305 83.3125 12.625 83.3125 C11.903125 84.385 11.18125 85.4575 10.4375 86.5625 C6.56215065 92.17155826 1.35676129 94.57805655 -5.20703125 96 C-14.18238164 97.2937442 -22.87364811 96.38212199 -30.70703125 91.578125 C-36.2506671 87.37171278 -39.43523108 82.35350637 -41 75.625 C-41.96817208 67.0728133 -42.28278781 58.54355988 -36.8984375 51.3359375 C-27.81359649 41.58736381 -14.87490301 39.88041437 -2.375 37.25 C1.82504003 36.33729899 5.67134228 35.00692474 9.625 33.3125 C11.17960305 30.20329391 11.35220693 26.68166972 10.625 23.3125 C8.25574794 20.68662869 6.67668974 20.32000898 3.15625 19.80859375 C1.81310925 19.76366651 0.46888406 19.74539874 -0.875 19.75 C-1.58188965 19.75169189 -2.2887793 19.75338379 -3.01708984 19.75512695 C-12.88080647 20.08807471 -20.14216272 25.00694955 -27.375 31.3125 C-28.365 31.3125 -29.355 31.3125 -30.375 31.3125 C-32.14894221 29.08987224 -33.66962425 26.94942474 -35.1875 24.5625 C-35.61998047 23.92828125 -36.05246094 23.2940625 -36.49804688 22.640625 C-37.70703125 20.765625 -37.70703125 20.765625 -39.375 17.3125 C-38.25971166 12.44045093 -33.3456817 9.8825419 -29.375 7.3125 C-19.41050771 1.63849113 -11.38842698 -0.03357437 0 0 Z " fill="#030303" transform="translate(370.375,45.6875)"/>
<path d="M0 0 C1.08667969 -0.02900391 2.17335937 -0.05800781 3.29296875 -0.08789062 C12.97021257 -0.16304246 22.34786091 1.65164029 29.56640625 8.55859375 C36.79925582 17.40750236 36.11928115 29.04916195 36.28125 39.87890625 C36.3189871 41.84700566 36.35674819 43.8151046 36.39453125 45.78320312 C36.44846597 48.85129679 36.50074551 51.91941337 36.55224609 54.98754883 C36.60374323 57.97225688 36.66100438 60.9568136 36.71875 63.94140625 C36.73232544 64.86732071 36.74590088 65.79323517 36.7598877 66.74720764 C36.42658626 70.85707921 36.42658626 70.85707921 38 74.3125 C39.51469448 74.54442865 41.03754562 74.72465238 42.5625 74.875 C43.38878906 74.95878906 44.21507812 75.04257813 45.06640625 75.12890625 C45.70449219 75.18949219 46.34257812 75.25007813 47 75.3125 C47.90413673 79.14974172 48.10576898 82.68752274 48.0625 86.625 C48.05347656 87.69363281 48.04445313 88.76226562 48.03515625 89.86328125 C48.02355469 90.67152344 48.01195312 91.47976562 48 92.3125 C44.0078288 95.00991298 39.76008477 94.68001198 35.125 94.6875 C34.33480469 94.71199219 33.54460937 94.73648438 32.73046875 94.76171875 C27.32018901 94.78872514 24.30168614 93.87116762 20 90.3125 C16 86.10197368 16 86.10197368 16 81.3125 C13.89969298 83.33889592 12.10140816 85.4485107 10.3125 87.75 C5.92199 92.91594834 0.61969027 95.24933762 -6 96.3125 C-14.86570713 97.02066708 -22.3017978 95.6616011 -30.25 91.6875 C-36.65342197 86.15727194 -40.41549115 79.22151921 -41.25 70.78515625 C-41.59521234 63.09339371 -40.3124547 56.39732995 -35.375 50.30859375 C-26.79850033 42.03584511 -15.58073476 39.70342707 -4.20605469 37.83129883 C1.19392974 36.8941423 6.54241268 35.67408813 11 32.3125 C12.40814405 28.87441578 12.40814405 28.87441578 12 25.3125 C10.3072108 22.09620053 9.48819868 21.47523289 6 20.3125 C-4.45923747 19.28860934 -12.09665689 20.2638796 -21 26.3125 C-22.68402357 27.78939174 -22.68402357 27.78939174 -24 29.25 C-24.99 30.2709375 -24.99 30.2709375 -26 31.3125 C-27.85546875 31.3046875 -27.85546875 31.3046875 -30 30.3125 C-32.17578125 27.73046875 -32.17578125 27.73046875 -34.3125 24.5 C-35.03050781 23.44167969 -35.74851563 22.38335937 -36.48828125 21.29296875 C-38 18.3125 -38 18.3125 -37.9296875 16.13671875 C-31.39963063 3.32353994 -12.72936501 0.11011561 0 0 Z " fill="#030303" transform="translate(200,45.6875)"/>
<path d="M0 0 C8.91 0 17.82 0 27 0 C27 43.89 27 87.78 27 133 C18.09 133 9.18 133 0 133 C0 89.11 0 45.22 0 0 Z " fill="#EA4A41" transform="translate(5,44)"/>
<path d="M0 0 C7.92 0 15.84 0 24 0 C24.01981934 3.26116699 24.03963867 6.52233398 24.06005859 9.88232422 C24.12684736 20.63519683 24.20448821 31.38797111 24.28752708 42.1407299 C24.33755722 48.66264579 24.38388654 55.18454494 24.421875 61.70654297 C24.45864307 67.99597659 24.5049796 74.28527243 24.55806351 80.57458878 C24.57665267 82.9788281 24.59174373 85.38309701 24.60334396 87.78738022 C24.6201292 91.14469381 24.64914526 94.50168871 24.68115234 97.85888672 C24.68331253 98.86157593 24.68547272 99.86426514 24.68769836 100.89733887 C24.69886185 101.80881683 24.71002533 102.7202948 24.7215271 103.65939331 C24.72705786 104.45397886 24.73258862 105.24856441 24.73828697 106.06722832 C24.8333967 108.23728332 24.8333967 108.23728332 27 110 C29.20250992 110.46006346 29.20250992 110.46006346 31.625 110.625 C32.44226563 110.69976562 33.25953125 110.77453125 34.1015625 110.8515625 C35.04128906 110.92503906 35.04128906 110.92503906 36 111 C37.51233701 117.46794133 38.21432579 123.35590042 38 130 C28.36774845 132.75207187 20.42554199 132.61744807 11 129 C5.17218429 125.56701544 2.18560172 120.55365089 0.41656876 114.14671135 C-0.43077193 109.78009518 -0.25822875 105.35592834 -0.22705078 100.92407227 C-0.22734283 99.83065018 -0.22763489 98.73722809 -0.22793579 97.610672 C-0.22654739 94.01250145 -0.21100902 90.41454043 -0.1953125 86.81640625 C-0.19158064 84.31534437 -0.18873448 81.81428103 -0.18673706 79.31321716 C-0.17989255 73.41311406 -0.16414492 67.51308777 -0.14403808 61.61301607 C-0.11943457 54.2322584 -0.10873623 46.85149134 -0.09765625 39.47070312 C-0.07623025 26.3137568 -0.04105905 13.15689972 0 0 Z " fill="#030303" transform="translate(432,10)"/>
<path d="M0 0 C7.92 0 15.84 0 24 0 C24.01981934 3.26116699 24.03963867 6.52233398 24.06005859 9.88232422 C24.12684736 20.63519683 24.20448821 31.38797111 24.28752708 42.1407299 C24.33755722 48.66264579 24.38388654 55.18454494 24.421875 61.70654297 C24.45864307 67.99597659 24.5049796 74.28527243 24.55806351 80.57458878 C24.57665267 82.9788281 24.59174373 85.38309701 24.60334396 87.78738022 C24.6201292 91.14469381 24.64914526 94.50168871 24.68115234 97.85888672 C24.68331253 98.86157593 24.68547272 99.86426514 24.68769836 100.89733887 C24.69886185 101.80881683 24.71002533 102.7202948 24.7215271 103.65939331 C24.72705786 104.45397886 24.73258862 105.24856441 24.73828697 106.06722832 C24.8333967 108.23728332 24.8333967 108.23728332 27 110 C29.20250992 110.46006346 29.20250992 110.46006346 31.625 110.625 C32.44226563 110.69976562 33.25953125 110.77453125 34.1015625 110.8515625 C35.04128906 110.92503906 35.04128906 110.92503906 36 111 C37.73955334 117.43013467 38.24991456 123.34949576 38 130 C28.2856047 132.77554151 20.5255424 132.48970343 11 129 C5.37557714 125.52961143 2.11302752 120.47993478 0.39679337 114.12693596 C-0.41733769 109.76294007 -0.25817489 105.34827296 -0.22705078 100.92407227 C-0.22734283 99.83065018 -0.22763489 98.73722809 -0.22793579 97.610672 C-0.22654739 94.01250145 -0.21100902 90.41454043 -0.1953125 86.81640625 C-0.19158064 84.31534437 -0.18873448 81.81428103 -0.18673706 79.31321716 C-0.17989255 73.41311406 -0.16414492 67.51308777 -0.14403808 61.61301607 C-0.11943457 54.2322584 -0.10873623 46.85149134 -0.09765625 39.47070312 C-0.07623025 26.3137568 -0.04105905 13.15689972 0 0 Z " fill="#030303" transform="translate(485,10)"/>
<path d="M0 0 C7.92 0 15.84 0 24 0 C24.01981934 3.22563721 24.03963867 6.45127441 24.06005859 9.7746582 C24.12687653 20.41576543 24.20451715 31.05677368 24.28752708 41.6977663 C24.33753632 48.15127208 24.38386596 54.60476111 24.421875 61.05834961 C24.4586693 67.28294978 24.50501328 73.50741142 24.55806351 79.73189354 C24.57663863 82.11018641 24.59173497 84.48850901 24.60334396 86.86684608 C24.62015301 90.19042869 24.64917528 93.51369186 24.68115234 96.8371582 C24.68331253 97.8269014 24.68547272 98.81664459 24.68769836 99.83638 C24.69886185 100.74081848 24.71002533 101.64525696 24.7215271 102.57710266 C24.72705786 103.36339208 24.73258862 104.14968149 24.73828697 104.95979786 C24.88629668 107.31079779 24.88629668 107.31079779 27 110 C29.42521494 110.58189266 29.42521494 110.58189266 32.125 110.6875 C33.73375 110.790625 35.3425 110.89375 37 111 C37.33 117.27 37.66 123.54 38 130 C27.84011688 132.90282375 19.50681836 133.2185746 10 128 C2.65058242 121.69109136 0.75294473 115.31155874 0 106 C-0.12807625 102.41498293 -0.12697548 98.83479348 -0.11352539 95.24780273 C-0.11367142 94.21261002 -0.11381744 93.1774173 -0.1139679 92.1108551 C-0.113276 88.71841269 -0.10551771 85.32602647 -0.09765625 81.93359375 C-0.0957895 79.56991099 -0.09436681 77.20622784 -0.09336853 74.84254456 C-0.08956361 68.6431673 -0.07975072 62.44381374 -0.06866455 56.2444458 C-0.05840678 49.90971192 -0.05386158 43.57497418 -0.04882812 37.24023438 C-0.03812654 24.82681087 -0.02054625 12.41341112 0 0 Z " fill="#030303" transform="translate(638,10)"/>
<path d="M0 0 C1.57536381 4.94406629 0.32001955 8.95741644 -0.9375 13.8125 C-1.13279297 14.60076172 -1.32808594 15.38902344 -1.52929688 16.20117188 C-2.01018678 18.13646052 -2.50383368 20.06857145 -3 22 C-4.051875 21.84144531 -5.10375 21.68289062 -6.1875 21.51953125 C-14.32472119 20.41066812 -20.21009629 19.97547126 -27 25 C-33.90067338 31.90067338 -33.32344986 40.56095299 -33.4140625 49.71484375 C-33.43342865 50.92572159 -33.4527948 52.13659943 -33.4727478 53.38417053 C-33.53232038 57.23520967 -33.57884016 61.08627905 -33.625 64.9375 C-33.66320027 67.55535127 -33.70225318 70.17319024 -33.7421875 72.79101562 C-33.83960132 79.19394489 -33.91934919 85.59675002 -34 92 C-41.92 92 -49.84 92 -58 92 C-58 61.31 -58 30.62 -58 -1 C-50.41 -1 -42.82 -1 -35 -1 C-34.67 3.29 -34.34 7.58 -34 12 C-33.113125 10.7625 -32.22625 9.525 -31.3125 8.25 C-23.19290121 -2.48760027 -12.31999521 -4.19404092 0 0 Z " fill="#030303" transform="translate(321,48)"/>
<path d="M0 0 C5.73910637 4.51801991 8.64503625 9.157121 9.9375 16.3125 C10.8516018 26.94087007 11.27183563 38.7753115 4.6875 47.75 C-0.94695171 53.00028454 -5.91119545 53.8404196 -13.4140625 53.59375 C-18.73859526 53.02831289 -21.90975521 51.43904604 -25.8125 47.625 C-30.48046667 41.39278311 -31.55386174 34.93392269 -31.375 27.375 C-31.36227051 26.58303223 -31.34954102 25.79106445 -31.33642578 24.97509766 C-31.09691452 15.36891471 -29.98146769 8.44925602 -23.0625 1.3125 C-17.12593866 -3.32091373 -6.63715701 -3.53407062 0 0 Z " fill="#FBFBFB" transform="translate(110.0625,67.6875)"/>
<path d="M0 0 C0.98659998 17.86842188 0.98659998 17.86842188 -5 25 C-9.09937818 28.99939334 -11.81122536 29.83786855 -17.375 30.25 C-22.37700199 29.90503435 -25.53261529 28.663036 -28.875 24.875 C-30.45843426 20.82844577 -30.67034978 17.28712069 -30 13 C-28.05097207 9.10194415 -25.91360605 7.77162507 -21.9375 6.375 C-20.29798741 5.89454681 -18.65139537 5.43786999 -17 5 C-15.56914062 4.61521484 -15.56914062 4.61521484 -14.109375 4.22265625 C-12.23604838 3.71926233 -10.35991734 3.22612607 -8.48046875 2.74609375 C-5.52920929 1.85839209 -3.07731637 0 0 0 Z " fill="#F7F7F7" transform="translate(383,94)"/>
<path d="M0 0 C0.79191439 18.12604043 0.79191439 18.12604043 -5.9375 26.375 C-10.06216186 29.62473359 -13.73786144 30.40305581 -19.0078125 30.25390625 C-22.99919257 29.74520095 -25.95166765 28.15066956 -28.640625 25.19921875 C-31.01143863 21.36367832 -30.6425853 17.35686955 -30 13 C-27.85530052 9.32337231 -25.86678851 7.60790701 -22 6 C-18.25643864 5.19297944 -14.49834669 4.54029125 -10.7265625 3.87890625 C-7.39410424 3.09294911 -3.2133568 0 0 0 Z " fill="#F8F8F8" transform="translate(213,94)"/>
<path d="M0 0 C5.59200252 3.99428752 8.25793207 8.16393928 9.625 14.875 C9.625 16.195 9.625 17.515 9.625 18.875 C-3.245 18.875 -16.115 18.875 -29.375 18.875 C-26.52847138 6.06562119 -26.52847138 6.06562119 -20.65625 1.5546875 C-14.21036786 -2.22302211 -6.9922627 -2.33075423 0 0 Z " fill="#F2F2F2" transform="translate(587.375,65.125)"/>
</svg>
